<svg width="96" height="96" viewBox="0 0 96 96" fill="none" xmlns="http://www.w3.org/2000/svg">
<g id="ic:round-plus">
<path id="Vector" d="M72 51.9919H52V71.9919C52 73.0528 51.5786 74.0702 50.8284 74.8204C50.0783 75.5705 49.0609 75.9919 48 75.9919C46.9391 75.9919 45.9217 75.5705 45.1716 74.8204C44.4214 74.0702 44 73.0528 44 71.9919V51.9919H24C22.9391 51.9919 21.9217 51.5705 21.1716 50.8204C20.4214 50.0702 20 49.0528 20 47.9919C20 46.9311 20.4214 45.9137 21.1716 45.1635C21.9217 44.4134 22.9391 43.9919 24 43.9919H44V23.9919C44 22.9311 44.4214 21.9137 45.1716 21.1635C45.9217 20.4134 46.9391 19.9919 48 19.9919C49.0609 19.9919 50.0783 20.4134 50.8284 21.1635C51.5786 21.9137 52 22.9311 52 23.9919V43.9919H72C73.0609 43.9919 74.0783 44.4134 74.8284 45.1635C75.5786 45.9137 76 46.9311 76 47.9919C76 49.0528 75.5786 50.0702 74.8284 50.8204C74.0783 51.5705 73.0609 51.9919 72 51.9919Z" fill="#F0F0F0"/>
</g>
</svg>
