<svg width="64" height="64" viewBox="0 0 64 64" fill="none" xmlns="http://www.w3.org/2000/svg">
<g id="mdi:library-outline">
<path id="Vector" d="M32 38.0534L28.3733 34.6667C24.1802 30.7764 18.9615 28.167 13.3333 27.1467V45.6801C20.2933 46.5867 26.6667 49.2534 32 53.2001C37.3333 49.2534 43.7067 46.5867 50.6667 45.6801V27.1467C44.9067 28.1867 39.76 30.8534 35.6267 34.6667M50.6667 21.7334C52.4 21.4667 54.1867 21.3334 56 21.3334V50.6667C46.6667 50.6667 38.2933 54.2667 32 60.1067C25.7067 54.2667 17.3333 50.6667 8 50.6667V21.3334C9.81333 21.3334 11.6 21.4667 13.3333 21.7334C20.5067 22.8267 26.9333 26.0801 32 30.7734C37.0667 26.0801 43.4933 22.8267 50.6667 21.7334ZM32 16.0001C32.72 16.0001 33.3333 15.7334 33.8933 15.2267C34.4 14.6667 34.6667 14.0534 34.6667 13.3334C34.6667 12.6134 34.4 12.0001 33.8933 11.4401C33.3333 10.9601 32.72 10.6667 32 10.6667C31.28 10.6667 30.6667 10.9601 30.1067 11.4401C29.6267 12.0001 29.3333 12.6401 29.3333 13.3334C29.3333 14.0267 29.6267 14.6667 30.1067 15.2267C30.6667 15.7334 31.3067 16.0001 32 16.0001ZM37.6533 18.9867C36.154 20.4861 34.1204 21.3284 32 21.3284C29.8796 21.3284 27.846 20.4861 26.3467 18.9867C24.8473 17.4874 24.005 15.4538 24.005 13.3334C24.005 11.213 24.8473 9.17942 26.3467 7.68007C27.0891 6.93766 27.9704 6.34875 28.9404 5.94696C29.9104 5.54518 30.9501 5.33838 32 5.33838C33.0499 5.33838 34.0896 5.54518 35.0596 5.94696C36.0296 6.34875 36.9109 6.93766 37.6533 7.68007C38.3957 8.42247 38.9846 9.30384 39.3864 10.2738C39.7882 11.2438 39.995 12.2835 39.995 13.3334C39.995 14.3833 39.7882 15.423 39.3864 16.393C38.9846 17.363 38.3957 18.2443 37.6533 18.9867Z" fill="white"/>
</g>
</svg>
